<svg xmlns="http://www.w3.org/2000/svg" style="display: none;"><symbol id="hand-shake" viewBox="0 0 512 512"><title>hand-shake</title><g> <g> <path d="M404.267,315.41c-10.048-20.949-45.995-50.027-80.725-78.123c-19.371-15.659-37.675-30.464-49.344-42.133 c-2.923-2.944-7.296-3.883-11.157-2.496c-7.189,2.603-11.627,4.608-15.125,6.165c-5.333,2.389-7.125,3.2-14.315,3.925 c-3.179,0.32-6.037,2.027-7.808,4.672c-15.083,22.549-30.699,20.629-41.131,17.131c-3.328-1.109-3.925-2.539-4.245-3.904 c-2.24-9.365,9.003-31.168,23.573-45.739c34.667-34.688,52.544-43.371,90.304-26.496c42.837,19.157,85.76,34.155,86.187,34.304 c5.611,1.941,11.648-1.003,13.589-6.571c1.92-5.568-1.003-11.648-6.571-13.589c-0.427-0.149-42.496-14.848-84.48-33.643 c-48.917-21.867-75.755-7.467-114.091,30.891c-14.592,14.592-34.411,44.117-29.291,65.771c2.197,9.216,8.683,16.043,18.325,19.221 c24.171,7.979,46.229,0.341,62.656-21.461c6.784-1.045,10.475-2.581,16.021-5.077c2.005-0.896,4.352-1.941,7.467-3.2 c12.203,11.456,28.672,24.789,46.016,38.805c31.36,25.365,66.923,54.123,74.923,70.763c3.947,8.213-0.299,13.568-3.179,16.021 c-4.224,3.627-10.005,4.779-13.141,2.581c-3.456-2.368-7.957-2.517-11.52-0.384c-3.584,2.133-5.589,6.165-5.141,10.304 c0.725,6.784-5.483,10.667-8.171,12.011c-6.827,3.456-13.952,2.859-16.619,0.384c-2.987-2.773-7.275-3.584-11.072-2.176 c-3.797,1.429-6.443,4.928-6.827,8.981c-0.64,6.997-5.824,13.717-12.587,16.341c-3.264,1.237-8,1.984-12.245-1.899 c-2.645-2.389-6.315-3.307-9.749-2.475c-3.477,0.853-6.272,3.371-7.488,6.72c-0.405,1.067-1.323,3.627-11.307,3.627 c-7.104,0-19.883-4.8-26.133-8.939c-7.488-4.928-54.443-39.957-94.997-73.92c-5.696-4.8-15.552-15.083-24.256-24.171 c-7.723-8.064-14.784-15.381-18.411-18.453c-4.544-3.84-11.264-3.264-15.04,1.259c-3.797,4.501-3.243,11.243,1.259,15.04 c3.307,2.795,9.707,9.557,16.768,16.917c9.515,9.941,19.349,20.224,25.963,25.771c39.723,33.259,87.467,69.163,96.981,75.413 c7.851,5.163,24.768,12.416,37.867,12.416c10.517,0,18.603-2.411,24.213-7.125c7.509,2.923,16.043,2.944,24.256-0.256 c9.707-3.755,17.685-11.328,22.208-20.501c8.405,1.792,18.027,0.533,26.773-3.861c8.555-4.309,14.741-10.901,17.813-18.603 c8.491,0.448,17.237-2.56,24.469-8.768C407.979,346.407,411.349,330.109,404.267,315.41z"/> </g> </g><g> <g> <path d="M213.333,138.663h-96c-5.888,0-10.667,4.779-10.667,10.667s4.779,10.667,10.667,10.667h96 c5.888,0,10.667-4.779,10.667-10.667S219.221,138.663,213.333,138.663z"/> </g> </g><g> <g> <path d="M435.52,292.711c-3.307-4.885-9.92-6.229-14.805-2.901l-31.189,20.949c-4.885,3.285-6.187,9.92-2.901,14.805 c2.069,3.051,5.44,4.715,8.875,4.715c2.027,0,4.096-0.576,5.931-1.813l31.189-20.949 C437.504,304.231,438.805,297.597,435.52,292.711z"/> </g> </g><g> <g> <path d="M369.301,343.613c-7.637-6.016-41.792-40.981-62.912-62.997c-4.075-4.267-10.837-4.416-15.083-0.32 c-4.267,4.075-4.395,10.837-0.32,15.083c5.483,5.717,53.845,56.128,65.088,65.003c1.941,1.536,4.288,2.283,6.592,2.283 c3.136,0,6.272-1.408,8.405-4.075C374.72,353.981,373.931,347.261,369.301,343.613z"/> </g> </g><g> <g> <path d="M326.677,365.01c-12.779-10.219-44.885-44.331-52.139-52.224c-4.011-4.352-10.731-4.608-15.083-0.64 c-4.331,3.989-4.629,10.752-0.64,15.083c0.384,0.405,38.699,41.771,54.528,54.443c1.963,1.557,4.331,2.325,6.656,2.325 c3.115,0,6.229-1.387,8.341-3.989C332.011,375.399,331.264,368.679,326.677,365.01z"/> </g> </g><g> <g> <path d="M284.224,386.493c-15.211-12.821-46.336-45.952-52.416-52.459c-4.032-4.309-10.795-4.544-15.083-0.512 c-4.309,4.032-4.523,10.773-0.512,15.083c8.747,9.365,38.528,40.939,54.251,54.208c2.005,1.685,4.437,2.517,6.869,2.517 c3.029,0,6.059-1.301,8.171-3.797C289.301,397.01,288.725,390.29,284.224,386.493z"/> </g> </g><g> <g> <path d="M124.672,120.253C106.389,102.93,33.28,97.319,11.307,96.018c-3.029-0.149-5.824,0.853-7.957,2.88 C1.216,100.903,0,103.719,0,106.663v192c0,5.888,4.779,10.667,10.667,10.667h64c4.608,0,8.704-2.965,10.133-7.36 c1.557-4.779,38.315-117.589,43.157-173.056C128.235,125.671,127.04,122.471,124.672,120.253z M66.88,287.997H21.333V118.098 c34.283,2.709,71.275,8.597,84.715,15.125C100.395,179.943,74.816,262.951,66.88,287.997z"/> </g> </g><g> <g> <path d="M501.333,117.33c-83.755,0-130.219,21.44-132.16,22.336c-2.773,1.301-4.843,3.712-5.696,6.635s-0.427,6.059,1.173,8.661 c13.184,21.227,54.464,139.115,62.4,167.872c1.28,4.629,5.483,7.829,10.283,7.829h64c5.888,0,10.667-4.779,10.667-10.667v-192 C512,122.087,507.221,117.33,501.333,117.33z M490.667,309.33h-45.355c-10.112-32.939-39.979-118.827-56.64-154.325 c16.277-5.525,51.243-15.019,101.995-16.213V309.33z"/> </g> </g></symbol><symbol id="money-bag" viewBox="0 0 512 512"><title>money-bag</title><path d="m447.288 285.325-2.778 1.522c-10.081-12.65-27.759-17.591-41.2-10.67-.045.024-.09.047-.134.072l-6.5 3.555c-14.595-12.133-35.52-14.386-51.437-5.063l-32.263 17.817h-42.908a61.389 61.389 0 0 1 -26.919-6.266l-5.89-2.892a99.441 99.441 0 0 0 -104.824 10.391c-.131.1-.258.206-.381.316l-14.221 12.858a49.51 49.51 0 0 1 -19.092 10.75l-8.215-27.364a6 6 0 0 0 -5.747-4.275h-68.779a6 6 0 0 0 -5.957 6.715l22.926 190.924a6 6 0 0 0 5.957 5.285h103.168a6 6 0 0 0 5.747-7.725l-13.682-45.575 42.541-27.318a25.4 25.4 0 0 1 18.777-2.475q.189.048.381.084l85.862 16.057a109.268 109.268 0 0 0 68.459-9.814 5.924 5.924 0 0 0 .736-.438l148.514-103.56a6 6 0 0 0 1.73-7.981 40.054 40.054 0 0 0 -53.871-14.93zm-38.428 1.491c7.733-3.935 18.2-1.138 24.89 5.926l-56.988 31.223-3.676 1.969a49.293 49.293 0 0 0 -8.188-15.062zm-57.753-1.608.143-.081c10.24-6.028 23.421-5.383 33.794 1.042l-29.161 15.956a47.921 47.921 0 0 0 -19.659-8.7zm-306.858 191.792-21.485-178.924h57.552l53.713 178.924zm300.164-75.3a97.191 97.191 0 0 1 -60.5 8.547l-85.663-16.02a37.34 37.34 0 0 0 -27.608 3.794c-.094.053-.186.109-.277.168l-39.8 25.549-28.378-94.532a61.521 61.521 0 0 0 23.69-13.342l14.035-12.69a87.513 87.513 0 0 1 92.053-9.006l5.89 2.892a73.448 73.448 0 0 0 32.209 7.5h57.12c18 0 32.992 13.343 35.942 30.824l-41.921-1.926a243.776 243.776 0 0 0 -45 2.111 6 6 0 1 0 1.67 11.882 231.648 231.648 0 0 1 42.779-2.006l48.722 2.239q.138.006.276.006a6 6 0 0 0 6-6c0-1.16-.054-2.307-.133-3.448l6.953-3.723 70.578-38.669a28.024 28.024 0 0 1 34.509 6.035z"/><path d="m65.35 449.594a19.757 19.757 0 1 0 19.756-19.97 19.887 19.887 0 0 0 -19.756 19.97zm19.756-7.97a7.973 7.973 0 1 1 -7.756 7.97 7.873 7.873 0 0 1 7.756-7.97z"/><path d="m187.027 172.468c-.556 1.55-1.084 3.131-1.569 4.7a76.1 76.1 0 0 0 72.942 98.313h54.59a76 76 0 0 0 60.686-29.912 74.7 74.7 0 0 0 13.15-65.185q-.257-.96-.534-1.926c-7.685-26.74-25.346-47.493-50.134-59.191a16.657 16.657 0 0 0 -4.358-20.873 155.981 155.981 0 0 1 13.1-23.879c5.344-7.92 10.189-11.746 15.318-15.8 2-1.58 4.071-3.214 6.161-5.09a11.53 11.53 0 0 0 3.449-11.823c-1.523-5.057-6.085-8.026-11.618-7.567-4.831.41-11.354-3.446-16.114-6.257a53.508 53.508 0 0 0 -6.564-3.515c-11.741-4.779-19.308 3.294-22.538 6.741-1.108 1.182-5.01 3.349-6.874 4.084-.235.092-.473.177-.71.247-5.536 1.637-8.427 1.379-13.625-3.34-7.817-7.093-16.991-8.365-24.54-3.4-2.941 1.933-4.366 5.112-5.872 8.477a45.5 45.5 0 0 1 -2.111 4.305 5.282 5.282 0 0 1 -.872 1.231 1.289 1.289 0 0 1 -.234.055c-1.029.17-1.244.207-3.345-1.347l-.828-.62a73.077 73.077 0 0 0 -15.195-8.956c-.22-.1-.467-.22-.738-.351-.826-.4-1.854-.894-3.014-1.349-4.839-1.9-15.483-2.326-20.7-.83a12.277 12.277 0 0 0 -3.97 1.772 12.866 12.866 0 0 0 -4.71 6.954 14.836 14.836 0 0 0 6.059 16.313 75.242 75.242 0 0 1 19.685 19.26 86.763 86.763 0 0 1 11.289 22.821 16.676 16.676 0 0 0 -6.337 24.3c-13.972 7.024-38.493 21.482-49.325 51.638zm63.149-56.3a4.714 4.714 0 0 1 0-9.428h71.224a4.714 4.714 0 0 1 0 9.428zm-31.684-71.621a2.907 2.907 0 0 1 -1.312-3.082 2.735 2.735 0 0 1 .165-.434c.081-.025.177-.054.289-.086 2.685-.769 10.592-.488 13.014.463.741.291 1.511.662 2.189.99.348.167.666.32.951.451a61.5 61.5 0 0 1 12.975 7.632l.91.681c3.129 2.314 6.672 4.495 12.439 3.539 5.273-.872 7.851-4.235 9.508-7.069a55.63 55.63 0 0 0 2.7-5.455 27.436 27.436 0 0 1 1.742-3.5c2.824-1.709 5.985-.921 9.654 2.409 7.9 7.168 15.17 8.9 25.1 5.959.556-.165 1.128-.363 1.7-.589 1.551-.612 8-3.6 11.231-7.043 4.094-4.371 6-5.159 9.256-3.832a48.879 48.879 0 0 1 4.987 2.733c5.522 3.261 12.876 7.6 20.579 7.934-1.233 1.032-2.488 2.024-3.792 3.053-5.363 4.235-11.44 9.035-17.828 18.5a168.737 168.737 0 0 0 -14.646 26.935h-16.234c.282-4.982 1.6-12.366 6.468-18.016a25.351 25.351 0 0 1 6.969-5.625 6 6 0 1 0 -5.814-10.5 37.3 37.3 0 0 0 -10.249 8.293c-7.282 8.458-9.082 18.988-9.388 25.846h-6.2c-2.5-7.616-7.609-20.675-10.782-25.765a6 6 0 0 0 -10.184 6.348c2.1 3.367 5.852 12.669 8.288 19.417h-18.46a98.438 98.438 0 0 0 -13.535-27.983 87.931 87.931 0 0 0 -22.69-22.204zm27.529 84.905c1.041-.5 1.956-.946 2.774-1.356.457.037.915.07 1.381.07h71.224a16.651 16.651 0 0 0 3.949-.491c24.953 9.73 42.032 28.411 49.415 54.1.162.567.32 1.133.47 1.7a62.79 62.79 0 0 1 -11.066 54.786 64.092 64.092 0 0 1 -51.173 25.225h-54.595a63.81 63.81 0 0 1 -51.837-26.189 63.057 63.057 0 0 1 -9.637-56.579c.432-1.4.9-2.809 1.4-4.19 10.44-29.082 35.603-41.235 47.695-47.076z"/><path d="m287.75 243.815c26.837 0 48.671-21.49 48.671-47.9s-21.834-47.9-48.671-47.9-48.669 21.49-48.669 47.905 21.833 47.895 48.669 47.895zm0-83.81c20.221 0 36.671 16.107 36.671 35.905s-16.45 35.905-36.671 35.905-36.669-16.107-36.669-35.9 16.45-35.91 36.669-35.91z"/><path d="m287.618 209.293c-1.144-.049-4.074-1.339-4.245-2.876a6 6 0 0 0 -11.926 1.333c.74 6.628 5.973 10.8 10.962 12.564a6 6 0 0 0 11.991-.114v-.05a16.17 16.17 0 0 0 6.064-3.733 15 15 0 0 0 4.253-11.649c-.332-7.905-7.007-12.549-9.056-13.79l-.3-.184-.4-.231c-.379-.221-.562-.328-1.152-.628a10.857 10.857 0 0 0 -1.011-.448l-.68-.261a10.294 10.294 0 0 0 -1-.357 16.781 16.781 0 0 0 -1.716-.448l-1.729-.338c-2.125-.414-2.9-1.714-2.91-2.7a4.866 4.866 0 0 1 1.077-3.257 3.888 3.888 0 0 1 2.9-.732 4.826 4.826 0 0 1 4.849 3.455l-.033-.128 11.674-2.782a17 17 0 0 0 -10.83-11.6v-.29a6 6 0 1 0 -12 0v.365a14.186 14.186 0 0 0 -4.936 3.118 16.651 16.651 0 0 0 -4.7 12.025c.1 7 5.287 12.879 12.62 14.307l1.691.33c.153.036.338.093.505.144.05.021.1.041.152.06l.711.272c.224.116.311.167.476.263l.369.214c.057.037.113.071.165.1 1.281.776 3.21 2.489 3.274 4.024.077 1.836-.522 2.434-.746 2.659a6.455 6.455 0 0 1 -4.363 1.363z"/></symbol><symbol id="key" viewBox="0 -37 446.39093 446"><title>key</title><path d="m396.066406 189.871094-2.144531 1.160156c-9.332031-11.203125-25.402344-15.527344-37.644531-9.316406-.046875.023437-.089844.046875-.136719.070312l-5.277344 2.847656c-13.277343-11.164062-32.121093-12.835937-47.160156-4.183593l-29.074219 15.808593h-38.699218c-8.363282-.007812-16.613282-1.898437-24.144532-5.53125l-5.328125-2.574218c-31.019531-15.09375-67.882812-11.492188-95.394531 9.3125-.128906.101562-.257812.203125-.382812.3125l-12.871094 11.457031c-4.789063 4.253906-10.441406 7.421875-16.574219 9.289063l-7.253906-23.789063c-.769531-2.527344-3.097657-4.25-5.738281-4.25h-62.242188c-1.71875 0-3.351562.734375-4.492188 2.023437-1.140624 1.285157-1.671874 2.996094-1.4648432 4.703126l20.7500002 170.121093c.367187 3.011719 2.925781 5.277344 5.957031 5.277344h93.363281c1.902344 0 3.691407-.902344 4.824219-2.429687 1.132812-1.527344 1.472656-3.503907.917969-5.320313l-12.226563-40.101563 38.066406-24.054687c5.0625-2.800781 11.003907-3.570313 16.613282-2.152344.125.035157.25.0625.375.082031l77.707031 14.3125c21.160156 3.785157 42.976563.703126 62.261719-8.792968.257812-.125.5-.269532.734375-.429688l134.402343-92.28125c2.613282-1.796875 3.378907-5.324218 1.742188-8.042968-10.214844-17.015626-32.015625-22.976563-49.464844-13.527344zm-34.300781 2.515625c6.898437-3.457031 15.570313-.691407 21.199219 4.554687l-50.71875 27.359375-2.777344 1.464844c-1.59375-4.441406-3.882812-8.601563-6.785156-12.320313zm-52.257813-1.4375.140626-.078125c9.121093-5.273438 20.371093-5.238282 29.460937.09375l-25.484375 13.730468c-4.789062-3.476562-10.226562-5.953124-15.992188-7.289062zm-277.449218 169.664062-19.28125-158.132812h51.023437l48.210938 158.132812zm270.890625-67.027343c-16.878907 8.210937-35.929688 10.855468-54.40625 7.550781l-77.507813-14.269531c-8.574218-2.117188-17.632812-.886719-25.335937 3.433593-.09375.050781-.1875.109375-.277344.164063l-35.425781 22.394531-25.261719-82.84375c7.789063-2.378906 14.96875-6.410156 21.050781-11.820313l12.679688-11.292968c23.910156-17.964844 55.867187-21.039063 82.757812-7.953125l5.332032 2.578125c9.160156 4.414062 19.195312 6.714844 29.367187 6.726562h51.691406c15.476563.019532 28.789063 10.953125 31.816407 26.128906l-37.203126-1.683593c-13.632812-.613281-27.292968.019531-40.8125 1.886719-3.257812.484374-5.515624 3.496093-5.0625 6.757812.449219 3.257812 3.445313 5.546875 6.707032 5.128906 12.792968-1.769531 25.722656-2.367187 38.625-1.785156l44.089844 2c.09375 0 .183593.007812.273437.007812 3.3125 0 6-2.6875 6-6 0-.902343-.035156-1.789062-.085937-2.675781l5.925781-3.125 63.878906-34.460937c9.925781-5.375 22.222656-3.464844 30.050781 4.667968zm0 0"/><path d="m50.09375 336.84375c0 10.1875 8.261719 18.449219 18.449219 18.449219 10.191406 0 18.449219-8.261719 18.449219-18.449219 0-10.191406-8.261719-18.449219-18.449219-18.449219-10.183594.011719-18.4375 8.265625-18.449219 18.449219zm18.449219-6.449219c3.5625 0 6.449219 2.886719 6.449219 6.449219s-2.886719 6.449219-6.449219 6.449219-6.449219-2.886719-6.449219-6.449219c.003906-3.558594 2.886719-6.441406 6.445312-6.449219zm0 0"/><path d="m362.964844 15.839844c-1.960938-2.636719-4.910156-4.359375-8.167969-4.769532l-86.1875-10.773437c-6.472656-.84375-12.425781 3.65625-13.382813 10.109375-2.238281 14.59375-3.773437 29.5-4.574218 44.398438h-151.3125c-2.003906 0-3.878906 1.003906-4.992188 2.671874l-12.285156 18.429688c-1.34375 2.015625-1.34375 4.640625 0 6.65625l12.285156 18.425781c1.113282 1.667969 2.988282 2.671875 4.992188 2.671875h15.476562l9.078125 11.273438c1.121094 1.390625 2.800781 2.210937 4.589844 2.234375 1.789063.039062 3.496094-.734375 4.648437-2.105469l7.226563-8.476562 8.421875 8.746093c1.238281 1.285157 2.976562 1.953125 4.753906 1.824219s3.402344-1.039062 4.441406-2.484375l7.910157-11.011719h84.761719c.800781 14.898438 2.335937 29.804688 4.574218 44.398438.871094 5.871094 5.914063 10.214844 11.847656 10.207031.515626-.003906 1.027344-.035156 1.535157-.101563l86.0625-10.757812c3.292969-.410156 6.269531-2.164062 8.226562-4.84375 1.953125-2.683594 2.714844-6.054688 2.101563-9.316406-2.144532-11.296875-5.738282-33.042969-5.738282-51.816406 0-19.960938 4.125-46.085938 5.902344-56.394532.546875-3.234375-.242187-6.558594-2.195312-9.195312zm-9.78125 119.664062-86.089844 10.746094v-.007812c-2.472656-16.175782-4.046875-32.476563-4.71875-48.828126-.132812-3.21875-2.78125-5.757812-6-5.753906h-93.566406c-1.929688 0-3.746094.929688-4.871094 2.5l-5.5 7.664063-8.023438-8.324219c-1.175781-1.222656-2.808593-1.886719-4.503906-1.835938-1.691406.050782-3.285156.816407-4.382812 2.101563l-6.820313 8-6.339843-7.871094c-1.140626-1.414062-2.859376-2.234375-4.675782-2.234375h-15.140625l-8.285156-12.425781 8.285156-12.429687h153.824219c3.21875.003906 5.867188-2.535157 6-5.75.664062-16.359376 2.253906-32.667969 4.75-48.851563l86.210938 10.800781c-2.265626 13.175782-6.070313 38.292969-6.070313 58.425782-.003906 19.753906 3.71875 42.34375 5.917969 54.074218zm0 0"/><path d="m333.816406 42.78125c.214844-3.175781-2.085937-5.960938-5.242187-6.355469l-19.652344-2.457031c-2.882813-.359375-5.605469 1.394531-6.472656 4.164062l-12.285157 39.3125c-.363281 1.164063-.363281 2.414063 0 3.578126l12.285157 39.308593c.78125 2.503907 3.101562 4.210938 5.722656 4.210938.25 0 .5-.015625.75-.046875l19.652344-2.457032c3.15625-.394531 5.457031-3.179687 5.242187-6.351562l-1.15625-17.378906c-.84375-12.703125-.84375-25.449219 0-38.152344zm-13.128906 56.328125.78125 11.726563-9.0625 1.132812-10.226562-32.734375 10.226562-32.734375 9.0625 1.128906-.78125 11.730469c-.878906 13.234375-.878906 26.511719 0 39.75zm0 0"/></symbol><symbol id="question" viewBox="0 0 512 512"><title>question</title><path d="m403.214 36.641c-19.177 0-34.777 15.601-34.777 34.778 0 4.142 3.357 7.5 7.5 7.5s7.5-3.358 7.5-7.5c0-10.906 8.872-19.778 19.777-19.778 10.906 0 19.778 8.872 19.778 19.778s-8.872 19.778-19.778 19.778h-4.76c-4.143 0-7.5 3.358-7.5 7.5v25.659c0 4.142 3.357 7.5 7.5 7.5s7.5-3.358 7.5-7.5v-18.266c17.9-1.402 32.038-16.417 32.038-34.671 0-19.177-15.602-34.778-34.778-34.778z"/><path d="m398.454 143.284c-4.143 0-7.5 3.358-7.5 7.5v2.197c0 4.142 3.357 7.5 7.5 7.5s7.5-3.358 7.5-7.5v-2.197c0-4.142-3.358-7.5-7.5-7.5z"/><path d="m469.019 0h-131.619c-18.059 0-32.75 14.691-32.75 32.75v59.346c-24.681-35.453-65.723-58.706-112.1-58.706h-33.53c-39.209 0-75.726 20.641-96.045 54.07-27.575 8.646-46 34.331-45.162 63.537l1.894 65.445c-5.833 5.472-9.487 13.239-9.487 21.849v7.04c0 16.52 13.444 29.96 29.97 29.96h20.105c5.118 12.659 12.565 24.47 22.223 35.231-5.316 7.362-32.63 45.187-34.306 47.51-.543.753-.942 1.602-1.176 2.5l-34.593 133.08c-1.153 4.435-.207 9.059 2.597 12.684 2.803 3.625 7.04 5.705 11.622 5.705h278.998c5.002 0 9.824-2.1 13.231-5.761 3.408-3.662 5.158-8.625 4.799-13.625l-2.84-38.876c-.713-9.839-3.325-19.255-7.765-27.987-1.879-3.692-6.395-5.164-10.085-3.286-3.692 1.877-5.163 6.393-3.286 10.085 3.53 6.942 5.607 14.435 6.175 22.277l2.84 38.872c.084 1.166-.477 1.956-.817 2.322s-1.087.98-2.252.98h-34.593v-30.645c0-4.142-3.357-7.5-7.5-7.5s-7.5 3.358-7.5 7.5v30.643h-164.218l19.137-73.616c.063-.242.281-.411.531-.411h33.137c6.725 0 13.064-1.674 18.635-4.615 4.816.874 9.75 1.323 14.711 1.323 21.034 0 41.107-8.035 55.802-22.192l.028.005c1.464.304.354.08 22.572 3.577 8.146 1.273 15.775 4.172 22.679 8.616 1.256.809 2.662 1.195 4.053 1.195 2.465 0 4.88-1.214 6.313-3.441 2.242-3.482 1.236-8.124-2.247-10.366-8.673-5.584-18.256-9.225-28.479-10.823-19.244-3.227-21.01-2.937-24.091-4.121-5.414-2.089-9.116-7.243-9.209-13.26 8.869-3.807 15.129-12.475 15.208-22.537.025-2.768-.406-5.465-1.246-8.015 17.741-10.517 43.179-30.42 56.33-63.029h14.117c16.52 0 29.96-13.44 29.96-29.96v-7.04c0-9.208-4.177-17.457-10.73-22.959v-19.297c2.708.714 5.512 1.086 8.341 1.086h23.619c2.729 0 4.95 2.22 4.95 4.95v21.3c0 5.295 3.237 9.823 8.248 11.536 1.334.456 2.691.677 4.025.677 3.676 0 7.178-1.678 9.552-4.745l24.815-31.973c.862-1.109 2.16-1.745 3.56-1.745h52.86c18.059 0 32.75-14.691 32.75-32.75v-131.62c0-18.059-14.696-32.75-32.761-32.75zm-443.799 245.33v-7.04c0-8.254 6.715-14.97 14.97-14.97h12.17c-.516 13.041-.178 23.78 3.079 36.97h-15.249c-8.255 0-14.97-6.711-14.97-14.96zm153.038 159.344c4.072-6.269 6.448-13.736 6.448-21.752v-11.985h25.797c.569 7.492 3.899 14.225 9.065 19.12-11.403 9.313-26.017 14.558-41.31 14.617zm37.107-48.738h-32.357c-7.335 0-13.302 5.967-13.302 13.302v13.683c0 13.813-11.238 25.052-25.052 25.052h-33.137c-7.079 0-13.267 4.785-15.048 11.637l-20.119 77.39h-49.288l34.138-131.333c2.645-3.665 51.292-71.032 57.428-79.541 1.557-2.158 3.86-3.579 6.484-4 2.655-.427 5.334.218 7.529 1.811l.366.267c2.383 1.729 3.792 4.403 3.87 7.398.068 2.029-.514 3.981-1.691 5.656l-13.98 19.974c-2.605 3.71-2.924 8.514-.834 12.537 2.092 4.025 6.211 6.526 10.75 6.526h84.686c2.625 0 5.093 1.023 6.951 2.88 1.874 1.875 2.894 4.369 2.87 7.032-.042 5.365-4.647 9.729-10.264 9.729zm109.425-110.606c0 8.249-6.711 14.96-14.96 14.96h-9.259c2.167-8.776 3.278-17.837 3.278-27.06 0-3.344-.071-6.654-.199-9.91h6.18c8.249 0 14.96 6.716 14.96 14.97zm-14.96-37.01h-7.253c-.879-8.424-2.219-16.582-4.012-24.328-3.504-15.075-16.808-26.215-32.355-27.09-29.058-1.629-58.694-9.163-85.709-21.789-7.564-3.528-16.699-1.092-21.252 5.668-1.719 2.554-5.331 4.412-8.552 4.339-5.251-.061-11.025-2.946-18.167-9.077-4.816-4.142-9.669-8.991-14.83-14.819-3.711-4.201-9.05-6.613-14.648-6.618h-.019c-5.565 0-10.873 2.386-14.567 6.55-7.217 8.144-13.478 17.494-18.609 27.788-1.848 3.707-.341 8.21 3.366 10.059 3.708 1.848 8.21.341 10.059-3.366 4.545-9.118 10.066-17.372 16.409-24.529 1.158-1.305 2.589-1.501 3.343-1.501.774.012 2.234.201 3.431 1.556 5.622 6.348 10.949 11.665 16.29 16.258 6.274 5.386 15.979 12.563 27.764 12.699 8.347.085 16.622-4.202 21.172-10.96.453-.673 1.561-.876 2.464-.455 28.726 13.425 60.268 21.438 91.213 23.174 8.938.503 16.581 6.88 18.585 15.503 2.107 9.103 3.55 18.853 4.287 28.997.404 5.409.609 11.079.609 16.852 0 11.072-1.813 21.866-5.389 32.084-11.205 32.035-36.282 51.171-52.931 60.812-4.241-3.136-9.351-4.831-14.721-4.831h-79.137l10.795-15.424c3.058-4.352 4.58-9.46 4.403-14.713-.196-7.642-3.861-14.602-10.045-19.089l-.365-.266c-5.452-3.955-12.101-5.547-18.722-4.487-6.589 1.057-12.368 4.621-16.275 10.036-2.822 3.914-8.354 11.577-14.933 20.69-8.512-10.036-14.884-21.011-18.981-32.729-5.774-16.494-6.096-31.308-4.779-48.947.755-10.358 2.252-20.328 4.449-29.632.952-4.031-1.544-8.071-5.576-9.023-4.031-.952-8.071 1.544-9.023 5.576-1.881 7.966-3.278 16.365-4.186 25.034h-13.243c-1.948 0-3.85.193-5.696.55l-1.687-58.305c-.668-23.248 14.552-43.59 37.012-49.469 1.951-.511 3.615-1.786 4.615-3.538 17.306-30.33 49.718-49.17 84.586-49.17h33.53c67.001 0 121.51 54.509 121.51 121.51v38.724c-1.383-.196-2.794-.304-4.23-.304zm176.95-43.95c0 9.788-7.963 17.75-17.75 17.75h-52.86c-6.062 0-11.674 2.746-15.404 7.541l-19.796 25.507v-13.098c0-11-8.949-19.95-19.95-19.95h-23.62c-2.968 0-5.798-.719-8.341-2.084v-10.136c0-17.568-3.338-34.37-9.409-49.809v-87.341c0-9.788 7.963-17.75 17.75-17.75h131.619c9.793 0 17.761 7.962 17.761 17.75z"/><path d="m140.106 240.658c4.142 0 7.5-3.358 7.5-7.5v-8.374c0-4.142-3.358-7.5-7.5-7.5s-7.5 3.358-7.5 7.5v8.374c0 4.142 3.358 7.5 7.5 7.5z"/><path d="m252.183 240.658c4.143 0 7.5-3.358 7.5-7.5v-8.374c0-4.142-3.357-7.5-7.5-7.5-4.142 0-7.5 3.358-7.5 7.5v8.374c0 4.142 3.358 7.5 7.5 7.5z"/><path d="m183.209 277.559c10.226-5.965 19.749-5.965 29.975 0 1.188.693 2.488 1.023 3.772 1.022 2.58 0 5.091-1.333 6.485-3.722 2.087-3.578.878-8.17-2.7-10.257-14.749-8.604-30.341-8.604-45.09 0-3.578 2.087-4.787 6.68-2.7 10.257 2.087 3.579 6.681 4.787 10.258 2.7z"/></symbol></svg>